<svg width="380" height="380" viewBox="0 0 380 380" fill="none" xmlns="http://www.w3.org/2000/svg">
<circle cx="190" cy="190" r="190" fill="#FFEDEF"/>
<mask id="mask0" style="mask-type:alpha" maskUnits="userSpaceOnUse" x="0" y="0" width="380" height="380">
<circle cx="190" cy="190" r="190" fill="#FFEDEF"/>
</mask>
<g mask="url(#mask0)">
<g clip-path="url(#clip0)">
<path d="M244 362.5C229.6 342.5 218.333 303.834 217 284.5L148.5 255L120 362.5H244Z" fill="#F9C9B6" stroke="black" stroke-width="4"/>
<mask id="mask1" style="mask-type:alpha" maskUnits="userSpaceOnUse" x="120" y="255" width="124" height="118">
<path d="M244 372.5C229.6 352.5 218.333 303.834 217 284.5L148.5 255L120 372.5H244Z" fill="#AC6651"/>
</mask>
<g mask="url(#mask1)">
<g style="mix-blend-mode:multiply">
<ellipse cx="214" cy="253" rx="59" ry="54" fill="black"/>
</g>
</g>
<mask id="path-6-inside-1" fill="white">
<path fill-rule="evenodd" clip-rule="evenodd" d="M273.887 193.917C273.86 193.801 273.832 193.685 273.804 193.569C273.777 193.454 273.749 193.338 273.72 193.222L257.324 124.786C257.307 124.718 257.291 124.65 257.275 124.582C257.259 124.514 257.242 124.446 257.226 124.379L257.153 124.075L257.152 124.076C246.934 82.6308 205.157 57.1472 163.583 67.1081C122.009 77.0689 96.3164 118.717 105.989 160.293L105.987 160.293L122.979 231.211L122.993 231.208C133.595 272.112 175.063 297.149 216.33 287.261C257.598 277.374 283.217 236.264 274.132 194.996L274.145 194.993L273.887 193.917Z"/>
</mask>
<path fill-rule="evenodd" clip-rule="evenodd" d="M273.887 193.917C273.86 193.801 273.832 193.685 273.804 193.569C273.777 193.454 273.749 193.338 273.72 193.222L257.324 124.786C257.307 124.718 257.291 124.65 257.275 124.582C257.259 124.514 257.242 124.446 257.226 124.379L257.153 124.075L257.152 124.076C246.934 82.6308 205.157 57.1472 163.583 67.1081C122.009 77.0689 96.3164 118.717 105.989 160.293L105.987 160.293L122.979 231.211L122.993 231.208C133.595 272.112 175.063 297.149 216.33 287.261C257.598 277.374 283.217 236.264 274.132 194.996L274.145 194.993L273.887 193.917Z" fill="#F9C9B6"/>
<path d="M273.887 193.917L269.993 194.831L269.995 194.84L269.997 194.849L273.887 193.917ZM273.72 193.222L269.831 194.154L269.833 194.163L269.835 194.172L273.72 193.222ZM257.324 124.786L253.431 125.708L253.434 125.718L257.324 124.786ZM257.226 124.379L253.336 125.311L253.339 125.321L257.226 124.379ZM257.153 124.075L261.043 123.143L260.112 119.255L256.223 120.185L257.153 124.075ZM257.152 124.076L253.268 125.033L254.219 128.89L258.082 127.966L257.152 124.076ZM163.583 67.1081L162.651 63.2182L162.651 63.2182L163.583 67.1081ZM105.989 160.293L106.923 164.182L110.785 163.255L109.885 159.386L105.989 160.293ZM105.987 160.293L105.053 156.404L101.166 157.337L102.097 161.225L105.987 160.293ZM122.979 231.211L119.089 232.143L120.021 236.035L123.912 235.101L122.979 231.211ZM122.993 231.208L126.865 230.204L125.879 226.401L122.059 227.318L122.993 231.208ZM216.33 287.261L215.398 283.371L215.398 283.371L216.33 287.261ZM274.132 194.996L273.201 191.106L269.382 192.021L270.226 195.856L274.132 194.996ZM274.145 194.993L275.076 198.883L278.967 197.951L278.035 194.061L274.145 194.993ZM277.781 193.002C277.752 192.881 277.723 192.759 277.694 192.637L269.915 194.502C269.941 194.611 269.967 194.721 269.993 194.831L277.781 193.002ZM277.694 192.637C277.665 192.516 277.636 192.395 277.606 192.273L269.835 194.172C269.861 194.281 269.888 194.391 269.915 194.502L277.694 192.637ZM253.434 125.718L269.831 194.154L277.61 192.29L261.213 123.854L253.434 125.718ZM261.216 123.863C261.199 123.793 261.182 123.722 261.165 123.65L253.385 125.514C253.401 125.578 253.416 125.643 253.431 125.708L261.216 123.863ZM261.165 123.65C261.148 123.579 261.131 123.508 261.113 123.436L253.339 125.321C253.354 125.385 253.37 125.449 253.385 125.514L261.165 123.65ZM253.263 125.007L253.336 125.311L261.116 123.447L261.043 123.143L253.263 125.007ZM258.082 127.966L258.084 127.966L256.223 120.185L256.222 120.185L258.082 127.966ZM261.036 123.118C250.292 79.5398 206.365 52.7447 162.651 63.2182L164.515 70.998C203.949 61.5498 243.576 85.7219 253.268 125.033L261.036 123.118ZM162.651 63.2182C118.937 73.6917 91.9225 117.484 102.093 161.199L109.885 159.386C100.71 119.951 125.081 80.4461 164.515 70.998L162.651 63.2182ZM106.921 164.183L106.923 164.182L105.055 156.403L105.053 156.404L106.921 164.183ZM126.869 230.279L109.877 159.361L102.097 161.225L119.089 232.143L126.869 230.279ZM122.059 227.318L122.045 227.322L123.912 235.101L123.926 235.097L122.059 227.318ZM119.121 232.211C130.269 275.223 173.87 301.548 217.262 291.151L215.398 283.371C176.255 292.75 136.921 269.002 126.865 230.204L119.121 232.211ZM217.262 291.151C260.654 280.755 287.592 237.53 278.039 194.136L270.226 195.856C278.843 234.999 254.542 273.993 215.398 283.371L217.262 291.151ZM273.213 191.103L273.201 191.106L275.064 198.886L275.076 198.883L273.213 191.103ZM269.997 194.849L270.255 195.925L278.035 194.061L277.777 192.985L269.997 194.849Z" fill="black" mask="url(#path-6-inside-1)"/>
</g>
<path d="M242.807 228.178C243.873 224.321 244.248 220.311 243.92 216.331C243.75 214.263 241.636 213.112 239.845 213.818C235.616 215.484 221.627 220.783 211.763 222.14C200.94 223.629 184.55 221.821 179.806 221.232C177.877 220.992 176.157 222.65 176.49 224.665C177.142 228.608 178.484 232.409 180.459 235.891C182.661 239.775 185.606 243.188 189.127 245.933C192.648 248.679 196.676 250.704 200.979 251.893C205.283 253.083 209.779 253.413 214.21 252.864C218.641 252.316 222.921 250.901 226.805 248.698C230.689 246.496 234.101 243.55 236.847 240.029C239.593 236.508 241.618 232.481 242.807 228.178Z" fill="black" stroke="black" stroke-width="4"/>
<mask id="mask2" style="mask-type:alpha" maskUnits="userSpaceOnUse" x="178" y="215" width="68" height="40">
<path d="M241.793 215.193C242.309 219.363 241.999 223.594 240.879 227.645C239.76 231.695 237.854 235.486 235.27 238.8C232.686 242.113 229.474 244.886 225.818 246.958C222.163 249.031 218.135 250.364 213.964 250.88C209.794 251.396 205.563 251.085 201.512 249.966C197.462 248.846 193.671 246.94 190.357 244.356C187.043 241.772 184.271 238.56 182.198 234.905C180.126 231.249 178.793 227.221 178.277 223.051L241.793 215.193Z" fill="#171921"/>
</mask>
<g mask="url(#mask2)">
<circle cx="214.522" cy="255.315" r="21.5" transform="rotate(-7.05286 214.522 255.315)" fill="#FC909F"/>
</g>
<path d="M219 132.214C224.667 129.548 238 127.114 246 138.714" stroke="black" stroke-width="4" stroke-linecap="round"/>
<path d="M143.579 157.521C145.65 151.61 153.261 140.396 167.142 142.822" stroke="black" stroke-width="4" stroke-linecap="round"/>
<ellipse cx="206.853" cy="89.1803" rx="6.85759" ry="18.4393" transform="rotate(117 206.853 89.1803)" fill="#FCFDFF"/>
<ellipse cx="168.117" cy="167.927" rx="9" ry="10" transform="rotate(-6.77646 168.117 167.927)" fill="black"/>
<ellipse cx="232.148" cy="157.923" rx="9" ry="10" transform="rotate(-6.27568 232.148 157.923)" fill="black"/>
<path d="M203.13 169.093C205.079 182.957 213.541 192.876 213.541 192.876C213.541 192.876 210.91 199.305 200.729 198.716" stroke="#171921" stroke-width="4"/>
<path d="M124.5 180.176C122.17 179.408 119.655 179 117.08 179C106.587 179 98.0801 185.5 99.08 197.5C100.122 210 107.587 214.5 118.08 214.5C119.248 214.5 120.391 214.397 121.5 214.201C122.711 213.987 123.881 213.661 125 213.235" stroke="black" stroke-width="8"/>
<path d="M125.5 213.036C123.22 213.979 120.713 214.5 118.08 214.5C107.587 214.5 100.122 210 99.08 197.5C98.0801 185.5 106.587 179 117.08 179C120.217 179 123.267 179.606 126 180.73L125.5 213.036Z" fill="#F9C9B6"/>
<path d="M121.5 187.5C117.5 185.667 108.7 184.7 105.5 195.5" stroke="black" stroke-width="4"/>
<path d="M111 188C113.167 189.833 117.3 195.5 116.5 203.5" stroke="black" stroke-width="4"/>
<path d="M323.694 383H50.3745C66.6742 353.658 89.8579 334.982 127.445 326.412C143.458 322.761 162.113 320.939 184 320.939C193.456 320.939 200.814 322.382 207.796 324.285C210.383 324.99 212.983 325.78 215.643 326.589C220.045 327.927 224.611 329.314 229.552 330.449L229.692 330.481L229.836 330.493C275.961 334.297 303.62 354.785 323.694 383Z" fill="#F4D150" stroke="black" stroke-width="4"/>
<path d="M115.93 328.581L125.083 308.984C125.301 308.516 125.845 308.293 126.332 308.465C164.258 321.89 198.761 320.945 230.735 312.044C231.138 311.932 231.568 312.081 231.814 312.418L245.746 331.47C246.129 331.994 245.934 332.732 245.33 332.97C211.723 346.166 148.662 343.923 116.414 329.904C115.903 329.681 115.693 329.086 115.93 328.581Z" fill="#F4D150" stroke="black" stroke-width="4"/>
</g>
<defs>
<clipPath id="clip0">
<rect width="200" height="320" fill="white" transform="translate(90 43)"/>
</clipPath>
</defs>
</svg>
