<svg width="380" height="380" viewBox="0 0 380 380" fill="none" xmlns="http://www.w3.org/2000/svg">
<circle cx="190" cy="190" r="190" fill="#6BD9E9"/>
<mask id="mask0" style="mask-type:alpha" maskUnits="userSpaceOnUse" x="0" y="0" width="380" height="380">
<circle cx="190" cy="190" r="190" fill="#FFEDEF"/>
</mask>
<g mask="url(#mask0)">
<g clip-path="url(#clip0)">
<path d="M244 362.5C229.6 342.5 218.333 303.834 217 284.5L148.5 255L120 362.5H244Z" fill="#F9C9B6" stroke="black" stroke-width="4"/>
<mask id="mask1" style="mask-type:alpha" maskUnits="userSpaceOnUse" x="120" y="255" width="124" height="118">
<path d="M244 372.5C229.6 352.5 218.333 303.834 217 284.5L148.5 255L120 372.5H244Z" fill="#AC6651"/>
</mask>
<g mask="url(#mask1)">
<g style="mix-blend-mode:multiply">
<ellipse cx="214" cy="253" rx="59" ry="54" fill="black"/>
</g>
</g>
<mask id="path-6-inside-1" fill="white">
<path fill-rule="evenodd" clip-rule="evenodd" d="M273.887 193.917C273.86 193.801 273.832 193.685 273.804 193.569C273.777 193.454 273.749 193.338 273.72 193.222L257.324 124.786C257.307 124.718 257.291 124.65 257.275 124.582C257.259 124.514 257.242 124.446 257.226 124.379L257.153 124.075L257.152 124.076C246.934 82.6308 205.157 57.1472 163.583 67.1081C122.009 77.0689 96.3164 118.717 105.989 160.293L105.987 160.293L122.979 231.211L122.993 231.208C133.595 272.112 175.063 297.149 216.33 287.261C257.598 277.374 283.217 236.264 274.132 194.996L274.145 194.993L273.887 193.917Z"/>
</mask>
<path fill-rule="evenodd" clip-rule="evenodd" d="M273.887 193.917C273.86 193.801 273.832 193.685 273.804 193.569C273.777 193.454 273.749 193.338 273.72 193.222L257.324 124.786C257.307 124.718 257.291 124.65 257.275 124.582C257.259 124.514 257.242 124.446 257.226 124.379L257.153 124.075L257.152 124.076C246.934 82.6308 205.157 57.1472 163.583 67.1081C122.009 77.0689 96.3164 118.717 105.989 160.293L105.987 160.293L122.979 231.211L122.993 231.208C133.595 272.112 175.063 297.149 216.33 287.261C257.598 277.374 283.217 236.264 274.132 194.996L274.145 194.993L273.887 193.917Z" fill="#F9C9B6"/>
<path d="M273.887 193.917L269.993 194.831L269.995 194.84L269.997 194.849L273.887 193.917ZM273.72 193.222L269.831 194.154L269.833 194.163L269.835 194.172L273.72 193.222ZM257.324 124.786L253.431 125.708L253.434 125.718L257.324 124.786ZM257.226 124.379L253.336 125.311L253.339 125.321L257.226 124.379ZM257.153 124.075L261.043 123.143L260.112 119.255L256.223 120.185L257.153 124.075ZM257.152 124.076L253.268 125.033L254.219 128.89L258.082 127.966L257.152 124.076ZM163.583 67.1081L162.651 63.2182L162.651 63.2182L163.583 67.1081ZM105.989 160.293L106.923 164.182L110.785 163.255L109.885 159.386L105.989 160.293ZM105.987 160.293L105.053 156.404L101.166 157.337L102.097 161.225L105.987 160.293ZM122.979 231.211L119.089 232.143L120.021 236.035L123.912 235.101L122.979 231.211ZM122.993 231.208L126.865 230.204L125.879 226.401L122.059 227.318L122.993 231.208ZM216.33 287.261L215.398 283.371L215.398 283.371L216.33 287.261ZM274.132 194.996L273.201 191.106L269.382 192.021L270.226 195.856L274.132 194.996ZM274.145 194.993L275.076 198.883L278.967 197.951L278.035 194.061L274.145 194.993ZM277.781 193.002C277.752 192.881 277.723 192.759 277.694 192.637L269.915 194.502C269.941 194.611 269.967 194.721 269.993 194.831L277.781 193.002ZM277.694 192.637C277.665 192.516 277.636 192.395 277.606 192.273L269.835 194.172C269.861 194.281 269.888 194.391 269.915 194.502L277.694 192.637ZM253.434 125.718L269.831 194.154L277.61 192.29L261.213 123.854L253.434 125.718ZM261.216 123.863C261.199 123.793 261.182 123.722 261.165 123.65L253.385 125.514C253.401 125.578 253.416 125.643 253.431 125.708L261.216 123.863ZM261.165 123.65C261.148 123.579 261.131 123.508 261.113 123.436L253.339 125.321C253.354 125.385 253.37 125.449 253.385 125.514L261.165 123.65ZM253.263 125.007L253.336 125.311L261.116 123.447L261.043 123.143L253.263 125.007ZM258.082 127.966L258.084 127.966L256.223 120.185L256.222 120.185L258.082 127.966ZM261.036 123.118C250.292 79.5398 206.365 52.7447 162.651 63.2182L164.515 70.998C203.949 61.5498 243.576 85.7219 253.268 125.033L261.036 123.118ZM162.651 63.2182C118.937 73.6917 91.9225 117.484 102.093 161.199L109.885 159.386C100.71 119.951 125.081 80.4461 164.515 70.998L162.651 63.2182ZM106.921 164.183L106.923 164.182L105.055 156.403L105.053 156.404L106.921 164.183ZM126.869 230.279L109.877 159.361L102.097 161.225L119.089 232.143L126.869 230.279ZM122.059 227.318L122.045 227.322L123.912 235.101L123.926 235.097L122.059 227.318ZM119.121 232.211C130.269 275.223 173.87 301.548 217.262 291.151L215.398 283.371C176.255 292.75 136.921 269.002 126.865 230.204L119.121 232.211ZM217.262 291.151C260.654 280.755 287.592 237.53 278.039 194.136L270.226 195.856C278.843 234.999 254.542 273.993 215.398 283.371L217.262 291.151ZM273.213 191.103L273.201 191.106L275.064 198.886L275.076 198.883L273.213 191.103ZM269.997 194.849L270.255 195.925L278.035 194.061L277.777 192.985L269.997 194.849Z" fill="black" mask="url(#path-6-inside-1)"/>
</g>
<path d="M206 219.696C210.167 217.363 227 214.396 227 221.196C227 229.696 215.5 229.196 215.5 229.196C215.5 229.196 228.545 226.035 226 235.196C223.5 244.196 216.5 240.696 214.5 239.696" stroke="black" stroke-width="4"/>
<path d="M219 132.214C224.667 129.548 238 127.114 246 138.714" stroke="black" stroke-width="4" stroke-linecap="round"/>
<path d="M143.579 157.521C145.65 151.61 153.261 140.396 167.142 142.822" stroke="black" stroke-width="4" stroke-linecap="round"/>
<path d="M164.836 119.819C166.724 120.117 166.724 120.119 166.723 120.12L166.723 120.123L166.722 120.131L166.719 120.149C166.716 120.163 166.713 120.18 166.71 120.2C166.702 120.24 166.692 120.292 166.679 120.356C166.652 120.484 166.612 120.66 166.554 120.884C166.439 121.331 166.251 121.965 165.954 122.778C165.359 124.403 164.328 126.736 162.561 129.701C159.391 135.018 153.859 142.359 144.245 151.29C174.215 152.037 199.249 142.382 217.066 132.257C226.427 126.938 233.778 121.498 238.783 117.394C241.285 115.343 243.198 113.627 244.481 112.429C245.122 111.83 245.606 111.361 245.927 111.044C246.087 110.886 246.207 110.766 246.285 110.687C246.324 110.647 246.352 110.618 246.371 110.599L246.39 110.579L246.394 110.575L246.394 110.575L248.676 108.201L249.605 111.36L247.771 111.899C249.605 111.36 249.605 111.36 249.605 111.361L249.606 111.363L249.608 111.372L249.618 111.405L249.657 111.538L249.809 112.058C249.943 112.515 250.139 113.187 250.39 114.052C250.893 115.78 251.615 118.275 252.495 121.344C254.254 127.483 256.643 135.919 259.161 145.11C264.188 163.457 269.765 184.924 271.854 197.08C275.347 217.398 269.946 232.824 266.752 241.949C266.131 243.723 265.593 245.259 265.221 246.546C265.274 246.591 265.344 246.646 265.435 246.711C266.032 247.134 267.091 247.622 268.622 248.108C271.637 249.067 275.941 249.853 280.543 250.296C285.138 250.738 289.92 250.828 293.881 250.442C295.863 250.248 297.587 249.94 298.956 249.522C300.272 249.12 301.096 248.665 301.541 248.254C301.554 248.168 301.572 247.963 301.522 247.566C301.424 246.79 301.117 245.698 300.585 244.253C299.792 242.096 298.616 239.455 297.241 236.368C296.775 235.321 296.286 234.222 295.781 233.074C291.852 224.135 287.125 212.51 286.095 200.666C284.951 187.505 287.552 176.25 289.889 166.133L290 165.651C292.388 155.311 294.375 146.332 292.335 137.232C289.239 123.422 285.016 111.924 278.531 103.662C272.114 95.4881 263.411 90.3865 251.035 89.4485L249.757 89.3516L249.362 88.1322C243.667 70.5619 235.979 59.081 226.176 51.9616C216.376 44.8448 204.22 41.9109 189.237 41.9109C161.549 41.9109 131.734 52.4301 109.359 70.629C87.0077 88.8092 72.2157 114.525 74.1511 144.963C76.2871 178.554 73.8527 204.024 68.3628 222.675C63.3568 239.682 55.7697 251.141 46.6753 257.825C47.8685 258.434 49.4593 259.208 51.4464 260.094C56.4732 262.334 64.037 265.292 74.1199 268.121C93.4546 273.546 122.065 278.501 159.831 277.008C151.507 269.857 143.108 261.18 136.457 252.008C128.824 241.481 123.322 230.065 123.161 219.433C122.97 206.806 123.825 173.765 124.089 166.926C124.704 151.03 134.911 138.776 144.627 130.626C149.514 126.527 154.355 123.398 157.971 121.295C159.781 120.242 161.29 119.443 162.351 118.904C162.881 118.635 163.3 118.431 163.59 118.293C163.669 118.255 163.739 118.222 163.798 118.194C163.847 118.171 163.889 118.152 163.924 118.136C163.963 118.118 163.993 118.104 164.014 118.094L164.039 118.083L164.046 118.079L164.049 118.078C164.05 118.078 164.05 118.078 164.836 119.819ZM164.836 119.819L166.724 120.117L167.275 116.623L164.05 118.078L164.836 119.819ZM265.067 246.388C265.07 246.388 265.081 246.402 265.096 246.428C265.072 246.401 265.065 246.388 265.067 246.388Z" fill="#E4AA80" stroke="black" stroke-width="3.82184"/>
<path d="M250 89C250.5 93.5 249.7 102.5 248.5 108.5" stroke="black" stroke-width="4"/>
<path fill-rule="evenodd" clip-rule="evenodd" d="M157.287 173.073C157.401 173.886 158.434 174.067 159.009 173.481C161.474 170.965 165.264 169.116 169.663 168.594C172.258 168.285 174.754 168.475 176.979 169.066C177.733 169.266 178.474 168.629 178.21 167.895C176.545 163.25 171.845 160.196 166.736 160.803C160.794 161.509 156.55 166.898 157.256 172.839C157.266 172.917 157.276 172.995 157.287 173.073Z" fill="black"/>
<path fill-rule="evenodd" clip-rule="evenodd" d="M221.385 163.073C221.498 163.886 222.531 164.067 223.106 163.482C225.549 160.996 229.298 159.17 233.648 158.653C236.213 158.348 238.68 158.535 240.88 159.117C241.634 159.316 242.375 158.679 242.111 157.946C240.456 153.352 235.804 150.335 230.748 150.935C224.862 151.635 220.658 156.973 221.357 162.859C221.366 162.93 221.375 163.002 221.385 163.073Z" fill="black"/>
<path d="M203.687 173.056C203.89 176.899 205.385 185.138 209.735 187.354C215.174 190.124 210.91 199.306 200.729 198.718" stroke="#171921" stroke-width="4"/>
<path d="M124.5 180.176C122.17 179.408 119.655 179 117.08 179C106.587 179 98.0801 185.5 99.08 197.5C100.122 210 107.587 214.5 118.08 214.5C119.248 214.5 120.391 214.397 121.5 214.201C122.711 213.987 123.881 213.661 125 213.235" stroke="black" stroke-width="8"/>
<path d="M125.5 213.036C123.22 213.979 120.713 214.5 118.08 214.5C107.587 214.5 100.122 210 99.08 197.5C98.0801 185.5 106.587 179 117.08 179C120.217 179 123.267 179.606 126 180.73L125.5 213.036Z" fill="#F9C9B6"/>
<path d="M121.5 187.5C117.5 185.667 108.7 184.7 105.5 195.5" stroke="black" stroke-width="4"/>
<path d="M111 188C113.167 189.833 117.3 195.5 116.5 203.5" stroke="black" stroke-width="4"/>
<path d="M323.366 382.863H50.4563C50.4907 382.793 50.5255 382.722 50.5604 382.651C55.1052 373.395 63.4899 356.319 74.4025 341.041C80.5961 332.37 87.5303 324.387 94.9416 318.772C102.354 313.156 110.061 310.04 117.892 310.726C132.946 312.043 146.355 320.285 159.817 328.56C161.092 329.344 162.368 330.129 163.646 330.908C178.131 339.735 193.005 347.931 209.365 344.345C214.899 343.131 218.629 340.535 220.976 337.18C223.29 333.873 224.122 330.029 224.266 326.517C224.41 322.999 223.871 319.674 223.311 317.256C223.049 316.126 222.779 315.179 222.564 314.484C226.189 310.835 230.027 308.71 233.989 307.753C238.284 306.716 242.876 307.016 247.707 308.445C257.437 311.323 267.847 318.697 278.007 328.179C296.621 345.552 313.7 369.323 323.366 382.863Z" fill="#FC909F" stroke="black" stroke-width="4.27431"/>
</g>
<defs>
<clipPath id="clip0">
<rect width="200" height="320" fill="white" transform="translate(90 43)"/>
</clipPath>
</defs>
</svg>
