<svg width="380" height="380" viewBox="0 0 380 380" fill="none" xmlns="http://www.w3.org/2000/svg">
<circle cx="190" cy="190" r="190" fill="#6BD9E9"/>
<mask id="mask0" style="mask-type:alpha" maskUnits="userSpaceOnUse" x="0" y="0" width="380" height="380">
<circle cx="190" cy="190" r="190" fill="#FFEDEF"/>
</mask>
<g mask="url(#mask0)">
<g clip-path="url(#clip0)">
<path d="M244 362.5C229.6 342.5 218.333 303.834 217 284.5L148.5 255L120 362.5H244Z" fill="#AC6651" stroke="black" stroke-width="4"/>
<mask id="mask1" style="mask-type:alpha" maskUnits="userSpaceOnUse" x="120" y="255" width="124" height="118">
<path d="M244 372.5C229.6 352.5 218.333 303.834 217 284.5L148.5 255L120 372.5H244Z" fill="#AC6651"/>
</mask>
<g mask="url(#mask1)">
<g style="mix-blend-mode:multiply">
<ellipse cx="214" cy="253" rx="59" ry="54" fill="black"/>
</g>
</g>
<mask id="path-6-inside-1" fill="white">
<path fill-rule="evenodd" clip-rule="evenodd" d="M273.887 193.917C273.86 193.801 273.832 193.685 273.804 193.569C273.777 193.454 273.749 193.338 273.72 193.222L257.324 124.786C257.307 124.718 257.291 124.65 257.275 124.582C257.259 124.514 257.242 124.446 257.226 124.379L257.153 124.075L257.152 124.076C246.934 82.6308 205.157 57.1472 163.583 67.1081C122.009 77.0689 96.3164 118.717 105.989 160.293L105.987 160.293L122.979 231.211L122.993 231.208C133.595 272.112 175.063 297.149 216.33 287.261C257.598 277.374 283.217 236.264 274.132 194.996L274.145 194.993L273.887 193.917Z"/>
</mask>
<path fill-rule="evenodd" clip-rule="evenodd" d="M273.887 193.917C273.86 193.801 273.832 193.685 273.804 193.569C273.777 193.454 273.749 193.338 273.72 193.222L257.324 124.786C257.307 124.718 257.291 124.65 257.275 124.582C257.259 124.514 257.242 124.446 257.226 124.379L257.153 124.075L257.152 124.076C246.934 82.6308 205.157 57.1472 163.583 67.1081C122.009 77.0689 96.3164 118.717 105.989 160.293L105.987 160.293L122.979 231.211L122.993 231.208C133.595 272.112 175.063 297.149 216.33 287.261C257.598 277.374 283.217 236.264 274.132 194.996L274.145 194.993L273.887 193.917Z" fill="#AC6651"/>
<path d="M273.887 193.917L269.993 194.831L269.995 194.84L269.997 194.849L273.887 193.917ZM273.72 193.222L269.831 194.154L269.833 194.163L269.835 194.172L273.72 193.222ZM257.324 124.786L253.431 125.708L253.434 125.718L257.324 124.786ZM257.226 124.379L253.336 125.311L253.339 125.321L257.226 124.379ZM257.153 124.075L261.043 123.143L260.112 119.255L256.223 120.185L257.153 124.075ZM257.152 124.076L253.268 125.033L254.219 128.89L258.082 127.966L257.152 124.076ZM163.583 67.1081L162.651 63.2182L162.651 63.2182L163.583 67.1081ZM105.989 160.293L106.923 164.182L110.785 163.255L109.885 159.386L105.989 160.293ZM105.987 160.293L105.053 156.404L101.166 157.337L102.097 161.225L105.987 160.293ZM122.979 231.211L119.089 232.143L120.021 236.035L123.912 235.101L122.979 231.211ZM122.993 231.208L126.865 230.204L125.879 226.401L122.059 227.318L122.993 231.208ZM216.33 287.261L215.398 283.371L215.398 283.371L216.33 287.261ZM274.132 194.996L273.201 191.106L269.382 192.021L270.226 195.856L274.132 194.996ZM274.145 194.993L275.076 198.883L278.967 197.951L278.035 194.061L274.145 194.993ZM277.781 193.002C277.752 192.881 277.723 192.759 277.694 192.637L269.915 194.502C269.941 194.611 269.967 194.721 269.993 194.831L277.781 193.002ZM277.694 192.637C277.665 192.516 277.636 192.395 277.606 192.273L269.835 194.172C269.861 194.281 269.888 194.391 269.915 194.502L277.694 192.637ZM253.434 125.718L269.831 194.154L277.61 192.29L261.213 123.854L253.434 125.718ZM261.216 123.863C261.199 123.793 261.182 123.722 261.165 123.65L253.385 125.514C253.401 125.578 253.416 125.643 253.431 125.708L261.216 123.863ZM261.165 123.65C261.148 123.579 261.131 123.508 261.113 123.436L253.339 125.321C253.354 125.385 253.37 125.449 253.385 125.514L261.165 123.65ZM253.263 125.007L253.336 125.311L261.116 123.447L261.043 123.143L253.263 125.007ZM258.082 127.966L258.084 127.966L256.223 120.185L256.222 120.185L258.082 127.966ZM261.036 123.118C250.292 79.5398 206.365 52.7447 162.651 63.2182L164.515 70.998C203.949 61.5498 243.576 85.7219 253.268 125.033L261.036 123.118ZM162.651 63.2182C118.937 73.6917 91.9225 117.484 102.093 161.199L109.885 159.386C100.71 119.951 125.081 80.4461 164.515 70.998L162.651 63.2182ZM106.921 164.183L106.923 164.182L105.055 156.403L105.053 156.404L106.921 164.183ZM126.869 230.279L109.877 159.361L102.097 161.225L119.089 232.143L126.869 230.279ZM122.059 227.318L122.045 227.322L123.912 235.101L123.926 235.097L122.059 227.318ZM119.121 232.211C130.269 275.223 173.87 301.548 217.262 291.151L215.398 283.371C176.255 292.75 136.921 269.002 126.865 230.204L119.121 232.211ZM217.262 291.151C260.654 280.755 287.592 237.53 278.039 194.136L270.226 195.856C278.843 234.999 254.542 273.993 215.398 283.371L217.262 291.151ZM273.213 191.103L273.201 191.106L275.064 198.886L275.076 198.883L273.213 191.103ZM269.997 194.849L270.255 195.925L278.035 194.061L277.777 192.985L269.997 194.849Z" fill="black" mask="url(#path-6-inside-1)"/>
</g>
<path d="M179.5 220.5C182 237.5 210.5 245.5 236.5 226" stroke="black" stroke-width="4"/>
<path d="M219 132.214C224.667 129.548 238 127.114 246 138.714" stroke="black" stroke-width="4" stroke-linecap="round"/>
<path d="M143.579 157.521C145.65 151.61 153.261 140.396 167.142 142.822" stroke="black" stroke-width="4" stroke-linecap="round"/>
<path d="M45.6007 343.857C45.4477 343.466 45.2377 342.916 44.9828 342.219C44.4158 340.667 43.6268 338.384 42.7485 335.479C40.9915 329.667 38.8806 321.38 37.4734 311.502C34.6563 291.725 34.6769 265.696 45.8698 240.384C47.679 236.292 49.94 232.089 52.3903 227.533C61.8582 209.931 74.1551 187.07 74.1551 145.084C74.1551 114.493 89.0029 88.7305 110.862 70.5692C132.741 52.3915 161.56 41.9109 189.237 41.9109C204.368 41.9109 216.533 43.6444 226.311 49.5511C236.028 55.4212 243.679 65.5978 249.362 83.1322C249.94 84.9168 251.851 86.0074 253.719 85.4015C265.034 81.7304 282.191 85.4361 296.673 94.8904C311.091 104.303 322.289 119.046 322.289 136.814C322.289 152.24 319.647 162.664 317.071 172.815L317.071 172.815C313.952 185.104 310.94 196.974 313.065 216.313C313.774 222.762 315.216 227.336 317.231 231.128C319.213 234.859 321.712 237.747 324.345 240.792L324.405 240.861C330.679 248.113 333.534 254.079 334.455 259.327C335.375 264.562 334.412 269.31 332.623 274.237C331.723 276.712 330.629 279.197 329.47 281.815L329.37 282.041C328.248 284.573 327.074 287.225 326.019 290.016C323.836 295.787 322.133 302.223 322.302 309.851C322.446 316.326 323.594 320.764 325.311 324.122C327.008 327.442 329.199 329.565 331.11 331.416L331.162 331.466C332.905 333.155 334.355 334.577 335.428 336.57C336.387 338.351 337.098 340.702 337.217 344.232C313.208 358.511 289.445 364.413 271.601 366.734C262.565 367.91 255.057 368.166 249.818 368.129C247.199 368.11 245.149 368.019 243.76 367.932C243.271 367.902 242.865 367.872 242.544 367.847C236.393 358.458 230.789 342.969 226.447 327.059C222.226 311.589 219.261 295.968 218.147 285.649C255.22 274.931 278.458 236.667 272.871 197.189C272.864 197.117 272.856 197.067 272.856 197.066C272.848 197.006 272.837 196.938 272.825 196.867C272.813 196.792 272.798 196.703 272.78 196.601C272.764 196.511 272.746 196.41 272.726 196.3C272.641 195.832 272.516 195.172 272.353 194.346C272.028 192.693 271.552 190.358 270.942 187.532C269.722 181.88 267.967 174.249 265.825 166.155C263.685 158.065 261.152 149.485 258.372 141.945C255.613 134.46 252.541 127.802 249.264 123.706L248.967 123.335L248.532 123.146C246.6 122.308 244.593 121.374 242.499 120.399C232.568 115.775 220.659 110.23 205.235 109.62C186.46 108.877 162.684 115.396 130.544 138.706L128.521 140.173L130.467 141.74C146.393 154.574 149.836 171.598 149.1 186.048C148.539 197.077 145.551 206.459 143.865 211.149C142.704 209.452 141.964 207.319 141.408 204.814C141.023 203.083 140.743 201.258 140.449 199.347L140.403 199.045C140.096 197.051 139.769 194.97 139.292 192.961C138.341 188.95 136.732 184.941 133.16 182.102C129.581 179.257 124.364 177.848 116.767 178.272L114.54 178.396L115.005 180.578L126.363 233.891L126.382 233.98L126.41 234.068C130.468 246.93 137.426 258.078 146.323 266.88C146.399 267.007 146.509 267.193 146.65 267.434C146.939 267.928 147.356 268.653 147.861 269.563C148.87 271.384 150.229 273.941 151.621 276.886C154.435 282.835 157.282 290.138 157.83 296.102C158.386 302.154 156.865 309.962 155.123 316.412C154.26 319.605 153.361 322.406 152.677 324.407C152.535 324.824 152.402 325.206 152.281 325.549C147.249 323.144 142.754 323.323 138.902 325.565C134.738 327.989 131.689 332.625 129.419 337.781C125.271 347.202 123.276 359.42 122.355 367.002C97.4846 361.298 78.281 355.507 65.2149 351.107C58.5012 348.846 53.408 346.953 49.9993 345.627C48.2949 344.964 47.0117 344.443 46.1575 344.089C45.9454 344.002 45.7598 343.924 45.6007 343.857Z" fill="#252525" stroke="black" stroke-width="3.82184"/>
<circle cx="167.24" cy="159.239" r="12" transform="rotate(-6.27568 167.24 159.239)" fill="#D2EFF3"/>
<ellipse cx="168.53" cy="168.402" rx="9" ry="13.5" transform="rotate(-6.77646 168.53 168.402)" fill="black"/>
<circle cx="231.019" cy="150.61" r="12" transform="rotate(-6.27568 231.019 150.61)" fill="#D2EFF3"/>
<ellipse cx="232.53" cy="158.402" rx="9" ry="13.5" transform="rotate(-6.27568 232.53 158.402)" fill="black"/>
<path d="M203.687 173.056C203.89 176.899 205.385 185.138 209.735 187.354C215.174 190.124 210.91 199.306 200.729 198.718" stroke="#171921" stroke-width="4"/>
<path d="M124.5 180.176C122.17 179.408 119.655 179 117.08 179C106.587 179 98.0801 185.5 99.08 197.5C100.122 210 107.587 214.5 118.08 214.5C119.248 214.5 120.391 214.397 121.5 214.201C122.711 213.987 123.881 213.661 125 213.235" stroke="black" stroke-width="8"/>
<path d="M125.5 213.036C123.22 213.979 120.713 214.5 118.08 214.5C107.587 214.5 100.122 210 99.08 197.5C98.0801 185.5 106.587 179 117.08 179C120.217 179 123.267 179.606 126 180.73L125.5 213.036Z" fill="#AC6651"/>
<path d="M121.5 187.5C117.5 185.667 108.7 184.7 105.5 195.5" stroke="black" stroke-width="4"/>
<path d="M111 188C113.167 189.833 117.3 195.5 116.5 203.5" stroke="black" stroke-width="4"/>
<path d="M117 203C130.255 203 141 213.745 141 227C141 240.255 130.255 251 117 251C103.745 251 93 240.255 93 227C93 220.609 96.5 215.5 99.5715 210.5L100.5 209" stroke="#F4D150" stroke-width="4"/>
<path d="M323.366 382.863H50.4563C50.4907 382.793 50.5255 382.722 50.5604 382.651C55.1052 373.395 63.4899 356.319 74.4025 341.041C80.5961 332.37 87.5303 324.387 94.9416 318.772C102.354 313.156 110.061 310.04 117.892 310.726C132.946 312.043 146.355 320.285 159.817 328.56C161.092 329.344 162.368 330.129 163.646 330.908C178.131 339.735 193.005 347.931 209.365 344.345C214.899 343.131 218.629 340.535 220.976 337.18C223.29 333.873 224.122 330.029 224.266 326.517C224.41 322.999 223.871 319.674 223.311 317.256C223.049 316.126 222.779 315.179 222.564 314.484C226.189 310.835 230.027 308.71 233.989 307.753C238.284 306.716 242.876 307.016 247.707 308.445C257.437 311.323 267.847 318.697 278.007 328.179C296.621 345.552 313.7 369.323 323.366 382.863Z" fill="#FC909F" stroke="black" stroke-width="4.27431"/>
</g>
<defs>
<clipPath id="clip0">
<rect width="200" height="320" fill="white" transform="translate(90 43)"/>
</clipPath>
</defs>
</svg>
