<svg width="380" height="380" viewBox="0 0 380 380" fill="none" xmlns="http://www.w3.org/2000/svg">
<circle cx="190" cy="190" r="190" fill="#E0DDFF"/>
<mask id="mask0" style="mask-type:alpha" maskUnits="userSpaceOnUse" x="0" y="0" width="380" height="380">
<circle cx="190" cy="190" r="190" fill="#FFEDEF"/>
</mask>
<g mask="url(#mask0)">
<g clip-path="url(#clip0)">
<path d="M244 362.5C229.6 342.5 218.333 303.834 217 284.5L148.5 255L120 362.5H244Z" fill="#F9C9B6" stroke="black" stroke-width="4"/>
<mask id="mask1" style="mask-type:alpha" maskUnits="userSpaceOnUse" x="120" y="255" width="124" height="118">
<path d="M244 372.5C229.6 352.5 218.333 303.834 217 284.5L148.5 255L120 372.5H244Z" fill="#AC6651"/>
</mask>
<g mask="url(#mask1)">
<g style="mix-blend-mode:multiply">
<ellipse cx="214" cy="253" rx="59" ry="54" fill="black"/>
</g>
</g>
<mask id="path-6-inside-1" fill="white">
<path fill-rule="evenodd" clip-rule="evenodd" d="M273.887 193.917C273.86 193.801 273.832 193.685 273.804 193.569C273.777 193.454 273.749 193.338 273.72 193.222L257.324 124.786C257.307 124.718 257.291 124.65 257.275 124.582C257.259 124.514 257.242 124.446 257.226 124.379L257.153 124.075L257.152 124.076C246.934 82.6308 205.157 57.1472 163.583 67.1081C122.009 77.0689 96.3164 118.717 105.989 160.293L105.987 160.293L122.979 231.211L122.993 231.208C133.595 272.112 175.063 297.149 216.33 287.261C257.598 277.374 283.217 236.264 274.132 194.996L274.145 194.993L273.887 193.917Z"/>
</mask>
<path fill-rule="evenodd" clip-rule="evenodd" d="M273.887 193.917C273.86 193.801 273.832 193.685 273.804 193.569C273.777 193.454 273.749 193.338 273.72 193.222L257.324 124.786C257.307 124.718 257.291 124.65 257.275 124.582C257.259 124.514 257.242 124.446 257.226 124.379L257.153 124.075L257.152 124.076C246.934 82.6308 205.157 57.1472 163.583 67.1081C122.009 77.0689 96.3164 118.717 105.989 160.293L105.987 160.293L122.979 231.211L122.993 231.208C133.595 272.112 175.063 297.149 216.33 287.261C257.598 277.374 283.217 236.264 274.132 194.996L274.145 194.993L273.887 193.917Z" fill="#F9C9B6"/>
<path d="M273.887 193.917L269.993 194.831L269.995 194.84L269.997 194.849L273.887 193.917ZM273.72 193.222L269.831 194.154L269.833 194.163L269.835 194.172L273.72 193.222ZM257.324 124.786L253.431 125.708L253.434 125.718L257.324 124.786ZM257.226 124.379L253.336 125.311L253.339 125.321L257.226 124.379ZM257.153 124.075L261.043 123.143L260.112 119.255L256.223 120.185L257.153 124.075ZM257.152 124.076L253.268 125.033L254.219 128.89L258.082 127.966L257.152 124.076ZM163.583 67.1081L162.651 63.2182L163.583 67.1081ZM105.989 160.293L106.923 164.182L110.785 163.255L109.885 159.386L105.989 160.293ZM105.987 160.293L105.053 156.404L101.166 157.337L102.097 161.225L105.987 160.293ZM122.979 231.211L119.089 232.143L120.021 236.035L123.912 235.101L122.979 231.211ZM122.993 231.208L126.865 230.204L125.879 226.401L122.059 227.318L122.993 231.208ZM216.33 287.261L215.398 283.371H215.398L216.33 287.261ZM274.132 194.996L273.201 191.106L269.382 192.021L270.226 195.856L274.132 194.996ZM274.145 194.993L275.076 198.883L278.967 197.951L278.035 194.061L274.145 194.993ZM277.781 193.002C277.752 192.881 277.723 192.759 277.694 192.637L269.915 194.502C269.941 194.611 269.967 194.721 269.993 194.831L277.781 193.002ZM277.694 192.637C277.665 192.516 277.636 192.395 277.606 192.273L269.835 194.172C269.861 194.281 269.888 194.391 269.915 194.502L277.694 192.637ZM253.434 125.718L269.831 194.154L277.61 192.29L261.213 123.854L253.434 125.718ZM261.216 123.863C261.199 123.793 261.182 123.722 261.165 123.65L253.385 125.514C253.401 125.578 253.416 125.643 253.431 125.708L261.216 123.863ZM261.165 123.65C261.148 123.579 261.131 123.508 261.113 123.436L253.339 125.321C253.354 125.385 253.37 125.449 253.385 125.514L261.165 123.65ZM253.263 125.007L253.336 125.311L261.116 123.447L261.043 123.143L253.263 125.007ZM258.082 127.966L258.084 127.966L256.223 120.185L256.222 120.185L258.082 127.966ZM261.036 123.118C250.292 79.5398 206.365 52.7447 162.651 63.2182L164.515 70.998C203.949 61.5498 243.576 85.7219 253.268 125.033L261.036 123.118ZM162.651 63.2182C118.937 73.6917 91.9225 117.484 102.093 161.199L109.885 159.386C100.71 119.951 125.081 80.4461 164.515 70.998L162.651 63.2182ZM106.921 164.183L106.923 164.182L105.055 156.403L105.053 156.404L106.921 164.183ZM126.869 230.279L109.877 159.361L102.097 161.225L119.089 232.143L126.869 230.279ZM122.059 227.318L122.045 227.322L123.912 235.101L123.926 235.097L122.059 227.318ZM119.121 232.211C130.269 275.223 173.87 301.548 217.262 291.151L215.398 283.371C176.255 292.75 136.921 269.002 126.865 230.204L119.121 232.211ZM217.262 291.151C260.654 280.755 287.592 237.53 278.039 194.136L270.226 195.856C278.843 234.999 254.542 273.993 215.398 283.371L217.262 291.151ZM273.213 191.103L273.201 191.106L275.064 198.886L275.076 198.883L273.213 191.103ZM269.997 194.849L270.255 195.925L278.035 194.061L277.777 192.985L269.997 194.849Z" fill="black" mask="url(#path-6-inside-1)"/>
</g>
<path d="M243.92 216.331C243.75 214.263 241.636 213.112 239.845 213.818C235.616 215.484 221.627 220.783 211.763 222.14C200.94 223.629 184.55 221.821 179.806 221.232C177.877 220.992 176.157 222.65 176.49 224.665C177.142 228.608 178.484 232.409 180.459 235.891C182.661 239.775 185.606 243.188 189.127 245.933C192.648 248.679 196.676 250.704 200.979 251.893C205.283 253.083 209.779 253.413 214.21 252.864C218.641 252.316 222.921 250.901 226.805 248.698C230.689 246.496 234.101 243.55 236.847 240.029C239.593 236.508 241.618 232.481 242.807 228.178C243.873 224.321 244.248 220.311 243.92 216.331Z" fill="black" stroke="black" stroke-width="4"/>
<mask id="mask2" style="mask-type:alpha" maskUnits="userSpaceOnUse" x="178" y="215" width="65" height="37">
<path d="M241.793 215.193C242.309 219.363 241.999 223.594 240.879 227.645C239.76 231.695 237.854 235.486 235.27 238.8C232.686 242.113 229.474 244.886 225.818 246.958C222.163 249.031 218.135 250.364 213.964 250.88C209.794 251.396 205.563 251.085 201.512 249.966C197.462 248.846 193.671 246.94 190.357 244.356C187.043 241.772 184.271 238.56 182.198 234.905C180.126 231.249 178.793 227.221 178.277 223.051L241.793 215.193Z" fill="#171921"/>
</mask>
<g mask="url(#mask2)">
<circle cx="214.522" cy="255.315" r="21.5" transform="rotate(-7.05286 214.522 255.315)" fill="#FC909F"/>
</g>
<path d="M219 132.214C224.667 129.548 238 127.114 246 138.714" stroke="black" stroke-width="4" stroke-linecap="round"/>
<path d="M143.579 157.521C145.65 151.61 153.261 140.396 167.142 142.822" stroke="black" stroke-width="4" stroke-linecap="round"/>
<mask id="path-13-inside-2" fill="white">
<path fill-rule="evenodd" clip-rule="evenodd" d="M269.177 82.3965C267.914 88.4543 264.574 93.7214 259.75 98.2984C269.142 132.363 269.354 152.167 264.134 155.947L249.338 105.961C217.389 124.702 157.645 127.896 142.677 127.896C141.134 128.072 139.659 128.298 138.249 128.57C123.603 137.562 135.656 180.688 150 199L139 201C133.86 176.034 121.587 178.084 112.388 179.62L112.07 179.673C114.264 193.304 118.794 207.406 122.515 218.992L122.515 218.992C123.474 221.978 124.379 224.796 125.177 227.396C124.394 227.501 123.703 227.693 123.062 227.871C117.559 229.398 115.648 229.929 89.6772 165.896C83.2101 149.952 83.6514 135.743 88.7094 123.284C83.9298 118.479 74.3404 116.136 69 115.5C79.4392 109.38 89.5814 110.63 94.5435 112.4C95.0452 111.653 95.5638 110.914 96.0986 110.182C95.1287 105.77 88.1345 100.722 83.9887 98.3632C92.5489 94.0527 102.609 96.3283 106.98 98.1525C126.629 80.1358 156.025 68.054 180.999 61.9995C229.815 50.1653 248.499 33.502 248.499 33.502C269.177 42 274.116 58.7185 269.177 82.3965Z"/>
</mask>
<path fill-rule="evenodd" clip-rule="evenodd" d="M269.177 82.3965C267.914 88.4543 264.574 93.7214 259.75 98.2984C269.142 132.363 269.354 152.167 264.134 155.947L249.338 105.961C217.389 124.702 157.645 127.896 142.677 127.896C141.134 128.072 139.659 128.298 138.249 128.57C123.603 137.562 135.656 180.688 150 199L139 201C133.86 176.034 121.587 178.084 112.388 179.62L112.07 179.673C114.264 193.304 118.794 207.406 122.515 218.992L122.515 218.992C123.474 221.978 124.379 224.796 125.177 227.396C124.394 227.501 123.703 227.693 123.062 227.871C117.559 229.398 115.648 229.929 89.6772 165.896C83.2101 149.952 83.6514 135.743 88.7094 123.284C83.9298 118.479 74.3404 116.136 69 115.5C79.4392 109.38 89.5814 110.63 94.5435 112.4C95.0452 111.653 95.5638 110.914 96.0986 110.182C95.1287 105.77 88.1345 100.722 83.9887 98.3632C92.5489 94.0527 102.609 96.3283 106.98 98.1525C126.629 80.1358 156.025 68.054 180.999 61.9995C229.815 50.1653 248.499 33.502 248.499 33.502C269.177 42 274.116 58.7185 269.177 82.3965Z" fill="#77311D"/>
<path d="M259.75 98.2984L257.121 95.527L255.458 97.1043L256.067 99.3137L259.75 98.2984ZM269.177 82.3965L265.438 81.6165V81.6165L269.177 82.3965ZM264.134 155.947L260.471 157.031L262.003 162.206L266.374 159.041L264.134 155.947ZM249.338 105.961L253.001 104.876L251.615 100.196L247.405 102.666L249.338 105.961ZM142.677 127.896V124.076H142.46L142.245 124.101L142.677 127.896ZM138.249 128.57L137.523 124.82L136.842 124.952L136.251 125.315L138.249 128.57ZM150 199L150.683 202.758L156.91 201.626L153.007 196.644L150 199ZM139 201L135.258 201.77L136.011 205.426L139.683 204.758L139 201ZM112.388 179.62L113.017 183.388L113.017 183.388L112.388 179.62ZM112.07 179.673L111.442 175.905L107.696 176.53L108.299 180.28L112.07 179.673ZM122.515 218.992L126.154 217.829L126.152 217.823L122.515 218.992ZM122.515 218.992L118.876 220.155L118.878 220.161L122.515 218.992ZM125.177 227.396L125.682 231.183L130.152 230.587L128.829 226.276L125.177 227.396ZM123.062 227.871L122.04 224.19L122.04 224.19L123.062 227.871ZM89.6772 165.896L93.2172 164.461V164.461L89.6772 165.896ZM88.7094 123.284L92.2488 124.721L93.1989 122.381L91.4178 120.59L88.7094 123.284ZM69 115.5L67.0682 112.204L57.267 117.95L68.5484 119.293L69 115.5ZM94.5435 112.4L93.2606 115.998L96.0578 116.995L97.7141 114.53L94.5435 112.4ZM96.0986 110.182L99.1825 112.437L100.199 111.045L99.8295 109.362L96.0986 110.182ZM83.9887 98.3632L82.2707 94.9513L75.9025 98.1579L82.0998 101.683L83.9887 98.3632ZM106.98 98.1525L105.509 101.678L107.762 102.618L109.562 100.968L106.98 98.1525ZM180.999 61.9995L181.899 65.712L180.999 61.9995ZM248.499 33.502L249.951 29.9687L247.74 29.0601L245.957 30.651L248.499 33.502ZM262.379 101.07C267.629 96.0891 271.459 90.1635 272.917 83.1765L265.438 81.6165C264.368 86.745 261.52 91.3537 257.121 95.527L262.379 101.07ZM266.374 159.041C268.89 157.219 270.103 154.048 270.722 150.864C271.373 147.509 271.532 143.264 271.235 138.253C270.638 128.207 268.167 114.457 263.432 97.2831L256.067 99.3137C260.724 116.205 263.055 129.39 263.608 138.706C263.885 143.377 263.705 146.92 263.222 149.407C262.706 152.063 261.988 152.785 261.894 152.852L266.374 159.041ZM245.675 107.045L260.471 157.031L267.797 154.862L253.001 104.876L245.675 107.045ZM142.677 131.716C150.337 131.716 169.206 130.905 190.21 127.734C211.113 124.577 234.64 119.011 251.271 109.256L247.405 102.666C232.086 111.652 209.767 117.054 189.069 120.179C168.471 123.29 149.985 124.076 142.677 124.076V131.716ZM138.975 132.321C140.283 132.068 141.66 131.857 143.11 131.692L142.245 124.101C140.609 124.287 139.036 124.527 137.523 124.82L138.975 132.321ZM153.007 196.644C146.281 188.058 139.879 173.28 136.992 159.507C135.552 152.639 135.046 146.291 135.679 141.271C136.323 136.164 138.03 133.188 140.248 131.826L136.251 125.315C131.146 128.449 128.866 134.236 128.099 140.315C127.321 146.483 127.978 153.747 129.514 161.074C132.578 175.69 139.375 191.631 146.993 201.356L153.007 196.644ZM139.683 204.758L150.683 202.758L149.317 195.242L138.317 197.242L139.683 204.758ZM113.017 183.388C117.834 182.583 121.939 182.014 125.516 183.792C128.843 185.446 132.79 189.781 135.258 201.77L142.742 200.23C140.07 187.253 135.31 180.13 128.917 176.951C122.772 173.897 116.141 175.12 111.759 175.852L113.017 183.388ZM112.699 183.441L113.017 183.388L111.76 175.852L111.442 175.905L112.699 183.441ZM126.152 217.823C122.415 206.19 117.982 192.363 115.842 179.066L108.299 180.28C110.546 194.245 115.172 208.623 118.878 220.16L126.152 217.823ZM126.154 217.83L126.154 217.829L118.876 220.154L118.876 220.155L126.154 217.83ZM128.829 226.276C128.023 223.647 127.109 220.804 126.152 217.824L118.878 220.161C119.839 223.152 120.736 225.945 121.525 228.517L128.829 226.276ZM124.083 231.552C124.745 231.368 125.196 231.248 125.682 231.183L124.672 223.61C123.592 223.754 122.662 224.017 122.04 224.19L124.083 231.552ZM86.1373 167.332C99.0888 199.264 106.163 215.415 110.733 223.371C112.944 227.22 114.961 229.898 117.357 231.195C120.228 232.75 122.834 231.898 124.083 231.552L122.04 224.19C121.264 224.405 121.041 224.451 120.897 224.459C120.869 224.46 120.897 224.456 120.951 224.468C121.007 224.48 121.027 224.494 120.995 224.477C120.673 224.303 119.558 223.397 117.357 219.566C113.104 212.161 106.237 196.561 93.2172 164.461L86.1373 167.332ZM85.17 121.847C79.7187 135.274 79.3163 150.515 86.1373 167.332L93.2172 164.461C87.1039 149.388 87.584 136.211 92.2488 124.721L85.17 121.847ZM91.4178 120.59C88.4256 117.582 84.1924 115.559 80.313 114.218C76.3621 112.852 72.3591 112.053 69.4516 111.706L68.5484 119.293C70.9813 119.583 74.4433 120.272 77.817 121.439C81.2623 122.63 84.2136 124.181 86.001 125.978L91.4178 120.59ZM70.9318 118.795C80.2021 113.361 89.1294 114.525 93.2606 115.998L95.8264 108.801C90.0333 106.736 78.6762 105.399 67.0682 112.204L70.9318 118.795ZM93.0147 107.928C92.4509 108.699 91.9033 109.48 91.3729 110.269L97.7141 114.53C98.1871 113.826 98.6768 113.128 99.1825 112.437L93.0147 107.928ZM82.0998 101.683C83.999 102.764 86.5572 104.469 88.7063 106.366C89.7786 107.313 90.6788 108.246 91.3358 109.113C92.0146 110.009 92.2888 110.644 92.3676 111.002L99.8295 109.362C99.4234 107.515 98.4596 105.864 97.4247 104.498C96.3679 103.104 95.0786 101.8 93.7629 100.639C91.136 98.3195 88.1242 96.3209 85.8776 95.0429L82.0998 101.683ZM108.451 94.6271C103.611 92.6074 92.264 89.9193 82.2707 94.9513L85.7067 101.775C92.8338 98.1862 101.606 100.049 105.509 101.678L108.451 94.6271ZM180.099 58.2871C154.799 64.4204 124.709 76.7135 104.399 95.3369L109.562 100.968C128.549 83.558 157.25 71.6875 181.899 65.712L180.099 58.2871ZM248.499 33.502C245.957 30.651 245.958 30.6499 245.959 30.6489C245.959 30.6486 245.96 30.6476 245.961 30.6471C245.962 30.6461 245.963 30.6453 245.964 30.6447C245.965 30.6436 245.965 30.6435 245.964 30.6444C245.962 30.6463 245.955 30.6521 245.944 30.6618C245.921 30.6813 245.88 30.7165 245.821 30.7667C245.701 30.8671 245.506 31.0277 245.233 31.2432C244.688 31.6741 243.83 32.3248 242.637 33.1535C240.252 34.8106 236.527 37.1809 231.282 39.9293C220.794 45.4249 204.214 52.4411 180.099 58.2871L181.899 65.712C206.6 59.7238 223.77 52.4912 234.828 46.6965C240.356 43.7998 244.353 41.2646 246.997 39.4276C248.318 38.5092 249.302 37.7656 249.968 37.239C250.302 36.9757 250.556 36.7667 250.734 36.6172C250.823 36.5425 250.893 36.4827 250.944 36.4384C250.97 36.4163 250.991 36.398 251.007 36.3837C251.015 36.3766 251.022 36.3704 251.028 36.3653C251.031 36.3627 251.033 36.3604 251.036 36.3583C251.037 36.3573 251.038 36.3559 251.039 36.3554C251.04 36.3541 251.042 36.3529 248.499 33.502ZM272.917 83.1765C275.459 70.9875 275.586 60.046 272.003 50.8674C268.355 41.5251 261.075 34.5402 249.951 29.9687L247.047 37.0352C256.601 40.9617 262.129 46.5851 264.886 53.646C267.707 60.8707 267.834 70.1274 265.438 81.6165L272.917 83.1765Z" fill="black" mask="url(#path-13-inside-2)"/>
<path fill-rule="evenodd" clip-rule="evenodd" d="M157.287 173.073C157.401 173.886 158.434 174.067 159.009 173.481C161.474 170.965 165.264 169.116 169.663 168.594C172.258 168.285 174.754 168.475 176.979 169.066C177.733 169.266 178.474 168.629 178.21 167.895C176.545 163.25 171.845 160.196 166.736 160.803C160.794 161.509 156.55 166.898 157.256 172.839C157.266 172.917 157.276 172.995 157.287 173.073Z" fill="black"/>
<path fill-rule="evenodd" clip-rule="evenodd" d="M221.385 163.073C221.498 163.886 222.531 164.067 223.106 163.482C225.549 160.996 229.298 159.17 233.648 158.653C236.213 158.348 238.68 158.535 240.88 159.117C241.634 159.316 242.375 158.679 242.111 157.946C240.456 153.352 235.804 150.335 230.748 150.935C224.862 151.635 220.658 156.973 221.357 162.859C221.366 162.93 221.375 163.002 221.385 163.073Z" fill="black"/>
<path d="M200.278 178.926C205.498 176.94 214.602 177.54 214.041 187.639C213.543 196.615 204.334 198.397 201.401 196.304" stroke="black" stroke-width="4"/>
<path d="M124.5 180.176C122.17 179.408 119.655 179 117.08 179C106.587 179 98.0801 185.5 99.08 197.5C100.122 210 107.587 214.5 118.08 214.5C119.248 214.5 120.391 214.397 121.5 214.201C122.711 213.987 123.881 213.661 125 213.235" stroke="black" stroke-width="8"/>
<path d="M125.5 213.036C123.22 213.979 120.713 214.5 118.08 214.5C107.587 214.5 100.122 210 99.08 197.5C98.0801 185.5 106.587 179 117.08 179C120.217 179 123.267 179.606 126 180.73L125.5 213.036Z" fill="#F9C9B6"/>
<path d="M121.5 187.5C117.5 185.667 108.7 184.7 105.5 195.5" stroke="black" stroke-width="4"/>
<path d="M111 188C113.167 189.833 117.3 195.5 116.5 203.5" stroke="black" stroke-width="4"/>
<path d="M189.771 359.578C189.771 359.578 189.771 359.578 191 358L189.771 359.578L191.493 360.919L192.679 359.087L192.679 359.087L192.681 359.084L192.69 359.07L192.731 359.007C192.742 358.99 192.755 358.971 192.769 358.949C192.803 358.897 192.847 358.832 192.9 358.753C193.05 358.528 193.275 358.195 193.57 357.77C194.158 356.919 195.023 355.702 196.118 354.246C198.312 351.332 201.416 347.482 205.071 343.718C208.737 339.945 212.898 336.318 217.198 333.793C221.514 331.26 225.777 329.949 229.733 330.483C272.171 336.205 303.402 355.002 323.674 383.001H50.3745C66.6742 353.659 89.8579 334.983 127.445 326.413C129.046 326.047 131.224 326.158 133.947 326.791C136.642 327.418 139.715 328.519 143.028 329.976C149.655 332.889 157.052 337.136 164.004 341.536C170.945 345.93 177.39 350.443 182.104 353.86C184.459 355.567 186.379 357 187.709 358.004C188.374 358.506 188.891 358.901 189.241 359.169C189.416 359.304 189.55 359.407 189.639 359.475L189.739 359.553L189.764 359.572L189.77 359.577L189.771 359.578Z" fill="#9287FF" stroke="black" stroke-width="4"/>
<path d="M115.613 329.085L120.779 309.853C120.989 309.074 121.996 308.854 122.54 309.449C137.403 325.714 156.16 325.076 162.385 324.33C163.23 324.228 163.892 325.153 163.495 325.906L150.338 350.859C150.136 351.241 149.724 351.452 149.3 351.364C145.352 350.541 125.677 345.732 115.729 329.867C115.583 329.635 115.542 329.35 115.613 329.085Z" fill="#E0DDFF" stroke="black" stroke-width="4"/>
<path d="M246.194 328.981L234.614 309.499C234.221 308.837 233.252 308.848 232.833 309.494C227.096 318.33 217.201 322.4 213.741 323.602C213.119 323.819 212.834 324.558 213.17 325.125L226.672 347.94C226.874 348.281 227.255 348.465 227.635 348.357C229.77 347.749 237.095 344.685 246.181 330.021C246.377 329.706 246.384 329.3 246.194 328.981Z" fill="#E0DDFF" stroke="black" stroke-width="4"/>
<path d="M172.5 346.5L163.5 325L156.5 340L172.5 346.5Z" fill="black" stroke="black" stroke-width="4" stroke-linejoin="round"/>
<path d="M204 345.5L213 324L220 339L204 345.5Z" fill="black" stroke="black" stroke-width="4" stroke-linejoin="round"/>
<path d="M133.5 306L121.5 309L131.5 315.5L133.5 306Z" fill="black" stroke="black" stroke-width="4" stroke-linejoin="round"/>
<path d="M223 306L234 309L227 315.5L223 306Z" fill="black" stroke="black" stroke-width="4" stroke-linejoin="round"/>
</g>
<defs>
<clipPath id="clip0">
<rect width="200" height="320" fill="white" transform="translate(90 43)"/>
</clipPath>
</defs>
</svg>
