<svg width="380" height="380" viewBox="0 0 380 380" fill="none" xmlns="http://www.w3.org/2000/svg">
<circle cx="190" cy="190" r="190" fill="#FC909F"/>
<mask id="mask0" style="mask-type:alpha" maskUnits="userSpaceOnUse" x="0" y="0" width="380" height="380">
<circle cx="190" cy="190" r="190" fill="#FFEDEF"/>
</mask>
<g mask="url(#mask0)">
<g clip-path="url(#clip0)">
<path d="M244 362.5C229.6 342.5 218.333 303.834 217 284.5L148.5 255L120 362.5H244Z" fill="#F9C9B6" stroke="black" stroke-width="4"/>
<mask id="mask1" style="mask-type:alpha" maskUnits="userSpaceOnUse" x="120" y="255" width="124" height="118">
<path d="M244 372.5C229.6 352.5 218.333 303.834 217 284.5L148.5 255L120 372.5H244Z" fill="#AC6651"/>
</mask>
<g mask="url(#mask1)">
<g style="mix-blend-mode:multiply">
<ellipse cx="214" cy="253" rx="59" ry="54" fill="black"/>
</g>
</g>
<mask id="path-6-inside-1" fill="white">
<path fill-rule="evenodd" clip-rule="evenodd" d="M273.887 193.917C273.86 193.801 273.832 193.685 273.804 193.569C273.777 193.454 273.749 193.338 273.72 193.222L257.324 124.786C257.307 124.718 257.291 124.65 257.275 124.582C257.259 124.514 257.242 124.446 257.226 124.379L257.153 124.075L257.152 124.076C246.934 82.6308 205.157 57.1472 163.583 67.1081C122.009 77.0689 96.3164 118.717 105.989 160.293L105.987 160.293L122.979 231.211L122.993 231.208C133.595 272.112 175.063 297.149 216.33 287.261C257.598 277.374 283.217 236.264 274.132 194.996L274.145 194.993L273.887 193.917Z"/>
</mask>
<path fill-rule="evenodd" clip-rule="evenodd" d="M273.887 193.917C273.86 193.801 273.832 193.685 273.804 193.569C273.777 193.454 273.749 193.338 273.72 193.222L257.324 124.786C257.307 124.718 257.291 124.65 257.275 124.582C257.259 124.514 257.242 124.446 257.226 124.379L257.153 124.075L257.152 124.076C246.934 82.6308 205.157 57.1472 163.583 67.1081C122.009 77.0689 96.3164 118.717 105.989 160.293L105.987 160.293L122.979 231.211L122.993 231.208C133.595 272.112 175.063 297.149 216.33 287.261C257.598 277.374 283.217 236.264 274.132 194.996L274.145 194.993L273.887 193.917Z" fill="#F9C9B6"/>
<path d="M273.887 193.917L269.993 194.831L269.995 194.84L269.997 194.849L273.887 193.917ZM273.72 193.222L269.831 194.154L269.833 194.163L269.835 194.172L273.72 193.222ZM257.324 124.786L253.431 125.708L253.434 125.718L257.324 124.786ZM257.226 124.379L253.336 125.311L253.339 125.321L257.226 124.379ZM257.153 124.075L261.043 123.143L260.112 119.255L256.223 120.185L257.153 124.075ZM257.152 124.076L253.268 125.033L254.219 128.89L258.082 127.966L257.152 124.076ZM163.583 67.1081L162.651 63.2182L162.651 63.2182L163.583 67.1081ZM105.989 160.293L106.923 164.182L110.785 163.255L109.885 159.386L105.989 160.293ZM105.987 160.293L105.053 156.404L101.166 157.337L102.097 161.225L105.987 160.293ZM122.979 231.211L119.089 232.143L120.021 236.035L123.912 235.101L122.979 231.211ZM122.993 231.208L126.865 230.204L125.879 226.401L122.059 227.318L122.993 231.208ZM216.33 287.261L215.398 283.371L215.398 283.371L216.33 287.261ZM274.132 194.996L273.201 191.106L269.382 192.021L270.226 195.856L274.132 194.996ZM274.145 194.993L275.076 198.883L278.967 197.951L278.035 194.061L274.145 194.993ZM277.781 193.002C277.752 192.881 277.723 192.759 277.694 192.637L269.915 194.502C269.941 194.611 269.967 194.721 269.993 194.831L277.781 193.002ZM277.694 192.637C277.665 192.516 277.636 192.395 277.606 192.273L269.835 194.172C269.861 194.281 269.888 194.391 269.915 194.502L277.694 192.637ZM253.434 125.718L269.831 194.154L277.61 192.29L261.213 123.854L253.434 125.718ZM261.216 123.863C261.199 123.793 261.182 123.722 261.165 123.65L253.385 125.514C253.401 125.578 253.416 125.643 253.431 125.708L261.216 123.863ZM261.165 123.65C261.148 123.579 261.131 123.508 261.113 123.436L253.339 125.321C253.354 125.385 253.37 125.449 253.385 125.514L261.165 123.65ZM253.263 125.007L253.336 125.311L261.116 123.447L261.043 123.143L253.263 125.007ZM258.082 127.966L258.084 127.966L256.223 120.185L256.222 120.185L258.082 127.966ZM261.036 123.118C250.292 79.5398 206.365 52.7447 162.651 63.2182L164.515 70.998C203.949 61.5498 243.576 85.7219 253.268 125.033L261.036 123.118ZM162.651 63.2182C118.937 73.6917 91.9225 117.484 102.093 161.199L109.885 159.386C100.71 119.951 125.081 80.4461 164.515 70.998L162.651 63.2182ZM106.921 164.183L106.923 164.182L105.055 156.403L105.053 156.404L106.921 164.183ZM126.869 230.279L109.877 159.361L102.097 161.225L119.089 232.143L126.869 230.279ZM122.059 227.318L122.045 227.322L123.912 235.101L123.926 235.097L122.059 227.318ZM119.121 232.211C130.269 275.223 173.87 301.548 217.262 291.151L215.398 283.371C176.255 292.75 136.921 269.002 126.865 230.204L119.121 232.211ZM217.262 291.151C260.654 280.755 287.592 237.53 278.039 194.136L270.226 195.856C278.843 234.999 254.542 273.993 215.398 283.371L217.262 291.151ZM273.213 191.103L273.201 191.106L275.064 198.886L275.076 198.883L273.213 191.103ZM269.997 194.849L270.255 195.925L278.035 194.061L277.777 192.985L269.997 194.849Z" fill="black" mask="url(#path-6-inside-1)"/>
</g>
<path d="M216.047 257.891C226.884 255.93 233.233 243.955 231.025 231.754C228.817 219.553 218.673 210.562 207.836 212.523C196.999 214.484 190.65 226.46 192.859 238.661C195.067 250.862 205.21 259.853 216.047 257.891Z" fill="black" stroke="black" stroke-width="3.59115"/>
<mask id="mask2" style="mask-type:alpha" maskUnits="userSpaceOnUse" x="194" y="214" width="36" height="43">
<ellipse cx="211.942" cy="235.207" rx="17.5976" ry="21.257" transform="rotate(-10.2582 211.942 235.207)" fill="#171921"/>
</mask>
<g mask="url(#mask2)">
<ellipse cx="215.202" cy="253.219" rx="20.2046" ry="18.3047" transform="rotate(-10.2582 215.202 253.219)" fill="#FC909F"/>
</g>
<path d="M219 132.214C224.667 129.548 238 127.114 246 138.714" stroke="black" stroke-width="4" stroke-linecap="round"/>
<path d="M143.579 157.521C145.65 151.61 153.261 140.396 167.142 142.822" stroke="black" stroke-width="4" stroke-linecap="round"/>
<path d="M182.788 48.4887L182.864 48.4969L182.941 48.4991C209.61 49.2835 230.342 59.8969 245.013 72.8493C259.069 85.2583 267.463 99.7231 270.2 109.582C266.14 111.899 259.185 113.893 250.315 115.528C240.639 117.312 229.022 118.615 217.168 119.544C193.462 121.401 168.978 121.749 157.543 121.5L151.47 121.368L156.276 125.083C158.774 127.013 162.099 128.356 165.615 129.3C169.156 130.252 173.034 130.835 176.746 131.167C180.57 131.509 184.299 131.589 187.387 131.51C176.8 139.672 163.325 145.948 150.038 150.6C134.692 155.973 119.768 159.12 110.209 160.521L108.06 160.836L108.551 162.952C111.898 177.381 118.052 202.603 122.179 219.519C124.01 227.025 125.442 232.895 126.054 235.463C127.138 240.017 130.552 246.508 134.448 252.491C138.041 258.008 142.233 263.38 145.77 266.687L137.932 298.5H108.371C116.709 285.787 118.469 271.097 116.769 255.517C114.929 238.653 109.007 220.513 102.766 202.35C102.151 200.562 101.534 198.774 100.916 196.986C95.2326 180.527 89.5644 164.113 86.4936 148.382C83.0922 130.958 82.9407 114.651 89.3264 100.314C99.6653 77.0999 117.993 63.6198 136.326 56.1911C154.701 48.745 172.945 47.4399 182.788 48.4887Z" fill="#F3D566" stroke="#171921" stroke-width="4"/>
<ellipse cx="168.117" cy="167.927" rx="9" ry="10" transform="rotate(-6.77646 168.117 167.927)" fill="black"/>
<ellipse cx="232.148" cy="157.923" rx="9" ry="10" transform="rotate(-6.27568 232.148 157.923)" fill="black"/>
<path d="M200.278 178.926C205.498 176.94 214.602 177.54 214.041 187.639C213.543 196.615 204.334 198.397 201.401 196.304" stroke="black" stroke-width="4"/>
<path d="M124.5 180.176C122.17 179.408 119.655 179 117.08 179C106.587 179 98.0801 185.5 99.08 197.5C100.122 210 107.587 214.5 118.08 214.5C119.248 214.5 120.391 214.397 121.5 214.201C122.711 213.987 123.881 213.661 125 213.235" stroke="black" stroke-width="8"/>
<path d="M125.5 213.036C123.22 213.979 120.713 214.5 118.08 214.5C107.587 214.5 100.122 210 99.08 197.5C98.0801 185.5 106.587 179 117.08 179C120.217 179 123.267 179.606 126 180.73L125.5 213.036Z" fill="#F9C9B6"/>
<path d="M121.5 187.5C117.5 185.667 108.7 184.7 105.5 195.5" stroke="black" stroke-width="4"/>
<path d="M111 188C113.167 189.833 117.3 195.5 116.5 203.5" stroke="black" stroke-width="4"/>
<path d="M323.366 382.863H50.4563C50.4907 382.793 50.5255 382.722 50.5604 382.651C55.1052 373.395 63.4899 356.319 74.4025 341.041C80.5961 332.37 87.5303 324.387 94.9416 318.772C102.354 313.156 110.061 310.04 117.892 310.726C132.946 312.043 146.355 320.285 159.817 328.56C161.092 329.344 162.368 330.129 163.646 330.908C178.131 339.735 193.005 347.931 209.365 344.345C214.899 343.131 218.629 340.535 220.976 337.18C223.29 333.873 224.122 330.029 224.266 326.517C224.41 322.999 223.871 319.674 223.311 317.256C223.049 316.126 222.779 315.179 222.564 314.484C226.189 310.835 230.027 308.71 233.989 307.753C238.284 306.716 242.876 307.016 247.707 308.445C257.437 311.323 267.847 318.697 278.007 328.179C296.621 345.552 313.7 369.323 323.366 382.863Z" fill="#9287FF" stroke="black" stroke-width="4.27431"/>
</g>
<defs>
<clipPath id="clip0">
<rect width="200" height="320" fill="white" transform="translate(90 43)"/>
</clipPath>
</defs>
</svg>
