<svg width="19" height="19" viewBox="0 0 19 19" fill="none" xmlns="http://www.w3.org/2000/svg">
<path d="M10.5288 9.67418C10.9513 9.30853 11.2901 8.85629 11.5223 8.34815C11.7545 7.84001 11.8747 7.28786 11.8747 6.72918C11.8747 5.67936 11.4576 4.67254 10.7153 3.93021C9.97297 3.18788 8.96616 2.77084 7.91634 2.77084C6.86653 2.77084 5.85971 3.18788 5.11738 3.93021C4.37505 4.67254 3.95801 5.67936 3.95801 6.72918C3.958 7.28786 4.07818 7.84001 4.3104 8.34815C4.54261 8.85629 4.88143 9.30853 5.30384 9.67418C4.19562 10.176 3.25538 10.9864 2.59553 12.0084C1.93569 13.0305 1.58417 14.221 1.58301 15.4375C1.58301 15.6475 1.66642 15.8488 1.81488 15.9973C1.96335 16.1458 2.16471 16.2292 2.37467 16.2292C2.58464 16.2292 2.786 16.1458 2.93447 15.9973C3.08293 15.8488 3.16634 15.6475 3.16634 15.4375C3.16634 14.1777 3.66679 12.9696 4.55758 12.0788C5.44838 11.188 6.65656 10.6875 7.91634 10.6875C9.17612 10.6875 10.3843 11.188 11.2751 12.0788C12.1659 12.9696 12.6663 14.1777 12.6663 15.4375C12.6663 15.6475 12.7497 15.8488 12.8982 15.9973C13.0467 16.1458 13.248 16.2292 13.458 16.2292C13.668 16.2292 13.8693 16.1458 14.0178 15.9973C14.1663 15.8488 14.2497 15.6475 14.2497 15.4375C14.2485 14.221 13.897 13.0305 13.2371 12.0084C12.5773 10.9864 11.6371 10.176 10.5288 9.67418ZM7.91634 9.10418C7.44661 9.10418 6.98743 8.96489 6.59686 8.70392C6.2063 8.44295 5.90189 8.07202 5.72213 7.63805C5.54237 7.20408 5.49534 6.72654 5.58698 6.26584C5.67862 5.80513 5.90481 5.38195 6.23696 5.0498C6.56911 4.71765 6.9923 4.49145 7.453 4.39981C7.91371 4.30817 8.39124 4.35521 8.82521 4.53496C9.25919 4.71472 9.63011 5.01913 9.89108 5.4097C10.1521 5.80026 10.2913 6.25945 10.2913 6.72918C10.2913 7.35907 10.0411 7.96316 9.59572 8.40856C9.15032 8.85396 8.54623 9.10418 7.91634 9.10418ZM17.1868 7.22793C17.1132 7.15373 17.0256 7.09483 16.9291 7.05464C16.8327 7.01445 16.7292 6.99375 16.6247 6.99375C16.5202 6.99375 16.4167 7.01445 16.3202 7.05464C16.2237 7.09483 16.1362 7.15373 16.0626 7.22793L14.4793 8.81126L13.9884 8.31251C13.9148 8.23831 13.8273 8.17941 13.7308 8.13922C13.6343 8.09903 13.5309 8.07834 13.4263 8.07834C13.3218 8.07834 13.2184 8.09903 13.1219 8.13922C13.0254 8.17941 12.9379 8.23831 12.8643 8.31251C12.7168 8.46084 12.634 8.66149 12.634 8.87064C12.634 9.07978 12.7168 9.28043 12.8643 9.42876L13.9251 10.4896C14.0734 10.637 14.2741 10.7198 14.4832 10.7198C14.6924 10.7198 14.893 10.637 15.0413 10.4896L17.1551 8.37584C17.235 8.30406 17.2995 8.21675 17.3446 8.11925C17.3897 8.02174 17.4145 7.91608 17.4175 7.80869C17.4204 7.70129 17.4015 7.59442 17.3618 7.49458C17.3222 7.39474 17.2626 7.30401 17.1868 7.22793Z" fill="#2FCE95"/>
</svg>
