<svg  xmlns="http://www.w3.org/2000/svg"  x="0px" y="0px" width="25" height="25" class="me-3"
      viewBox="0 0 15.8 15.8" style="enable-background:new 0 0 15.8 15.8;" xml:space="preserve">
            <path class="st0" fill="#ffffff" d="M13.5,0H5.5C4.9,0,4.3,0.3,3.9,0.7c-0.4,0.4-0.7,1-0.7,1.7v0.8H2.4c-0.6,0-1.2,0.3-1.7,0.7C0.3,4.3,0,4.9,0,5.5
            v7.9c0,0.6,0.3,1.2,0.7,1.7s1,0.7,1.7,0.7h7.9c0.6,0,1.2-0.3,1.7-0.7s0.7-1,0.7-1.7v-0.8h0.8c0.6,0,1.2-0.3,1.7-0.7
            c0.4-0.4,0.7-1,0.7-1.7V2.4c0-0.6-0.3-1.2-0.7-1.7S14.1,0,13.5,0z M11.1,13.5c0,0.2-0.1,0.4-0.2,0.6c-0.1,0.1-0.3,0.2-0.6,0.2H2.4
            c-0.2,0-0.4-0.1-0.6-0.2c-0.1-0.1-0.2-0.3-0.2-0.6V7.9h9.5V13.5z M11.1,6.3H1.6V5.5c0-0.2,0.1-0.4,0.2-0.6C2,4.8,2.2,4.8,2.4,4.8
            h7.9c0.2,0,0.4,0.1,0.6,0.2c0.1,0.1,0.2,0.3,0.2,0.6V6.3z M14.2,10.3c0,0.2-0.1,0.4-0.2,0.6c-0.1,0.1-0.3,0.2-0.6,0.2h-0.8V5.5
            c0-0.3-0.1-0.5-0.1-0.8h1.7V10.3z M14.2,3.2H4.8V2.4C4.8,2.2,4.8,2,5,1.8c0.1-0.1,0.3-0.2,0.6-0.2h7.9c0.2,0,0.4,0.1,0.6,0.2
            c0.1,0.1,0.2,0.3,0.2,0.6V3.2z"/>
</svg>