<svg width="30" height="30" viewBox="0 0 30 30" fill="none" xmlns="http://www.w3.org/2000/svg">
<path d="M8.75 20C8.50277 20 8.2611 20.0733 8.05554 20.2107C7.84998 20.348 7.68976 20.5432 7.59515 20.7716C7.50054 21.0001 7.47579 21.2514 7.52402 21.4939C7.57225 21.7363 7.6913 21.9591 7.86612 22.1339C8.04093 22.3087 8.26366 22.4278 8.50614 22.476C8.74861 22.5242 8.99995 22.4995 9.22835 22.4048C9.45676 22.3102 9.65199 22.15 9.78934 21.9445C9.92669 21.7389 10 21.4972 10 21.25C10 20.9185 9.8683 20.6005 9.63388 20.3661C9.39946 20.1317 9.08152 20 8.75 20ZM23.825 15L25.3625 13.4625C26.0648 12.7594 26.4592 11.8063 26.4592 10.8125C26.4592 9.81875 26.0648 8.86563 25.3625 8.1625L21.825 4.6375C21.1219 3.93525 20.1688 3.5408 19.175 3.5408C18.1812 3.5408 17.2281 3.93525 16.525 4.6375L15 6.175C14.9804 5.19349 14.5766 4.25882 13.8755 3.5717C13.1743 2.88458 12.2317 2.4998 11.25 2.5H6.25C5.25544 2.5 4.30161 2.89509 3.59835 3.59835C2.89509 4.30161 2.5 5.25544 2.5 6.25V23.75C2.5 24.7446 2.89509 25.6984 3.59835 26.4017C4.30161 27.1049 5.25544 27.5 6.25 27.5H23.75C24.7446 27.5 25.6984 27.1049 26.4017 26.4017C27.1049 25.6984 27.5 24.7446 27.5 23.75V18.75C27.5002 17.7683 27.1154 16.8257 26.4283 16.1245C25.7412 15.4234 24.8065 15.0196 23.825 15ZM12.5 23.75C12.5 24.0815 12.3683 24.3995 12.1339 24.6339C11.8995 24.8683 11.5815 25 11.25 25H6.25C5.91848 25 5.60054 24.8683 5.36612 24.6339C5.1317 24.3995 5 24.0815 5 23.75V6.25C5 5.91848 5.1317 5.60054 5.36612 5.36612C5.60054 5.1317 5.91848 5 6.25 5H11.25C11.5815 5 11.8995 5.1317 12.1339 5.36612C12.3683 5.60054 12.5 5.91848 12.5 6.25V23.75ZM15 9.7L18.3 6.4C18.5342 6.16719 18.851 6.03651 19.1813 6.03651C19.5115 6.03651 19.8283 6.16719 20.0625 6.4L23.6 10C23.8328 10.2342 23.9635 10.551 23.9635 10.8812C23.9635 11.2115 23.8328 11.5283 23.6 11.7625L20 15.3625L15 20.3V9.7ZM25 23.75C25 24.0815 24.8683 24.3995 24.6339 24.6339C24.3995 24.8683 24.0815 25 23.75 25H14.775C14.9032 24.6295 14.9749 24.2418 14.9875 23.85L21.3375 17.5H23.75C24.0815 17.5 24.3995 17.6317 24.6339 17.8661C24.8683 18.1005 25 18.4185 25 18.75V23.75Z" fill="#33306F"/>
</svg>
