<svg width="18" height="18" viewBox="0 0 18 18" fill="none" xmlns="http://www.w3.org/2000/svg">
<path d="M11.865 15L15.75 15C15.9489 15 16.1397 14.921 16.2803 14.7803C16.421 14.6397 16.5 14.4489 16.5 14.25C16.5 14.0511 16.421 13.8603 16.2803 13.7197C16.1397 13.579 15.9489 13.5 15.75 13.5L11.865 13.5C11.7073 13.0656 11.4198 12.6903 11.0414 12.4251C10.663 12.1599 10.2121 12.0176 9.75 12.0176C9.28791 12.0176 8.83703 12.1599 8.45862 12.4251C8.08022 12.6903 7.79265 13.0656 7.635 13.5L2.25 13.5C2.05109 13.5 1.86032 13.579 1.71967 13.7197C1.57902 13.8603 1.5 14.0511 1.5 14.25C1.5 14.4489 1.57902 14.6397 1.71967 14.7803C1.86032 14.921 2.05109 15 2.25 15L7.635 15C7.79265 15.4344 8.08022 15.8097 8.45862 16.0749C8.83703 16.3401 9.28791 16.4824 9.75 16.4824C10.2121 16.4824 10.663 16.3401 11.0414 16.0749C11.4198 15.8097 11.7073 15.4344 11.865 15ZM9 14.25C9 14.1017 9.04399 13.9567 9.1264 13.8333C9.20881 13.71 9.32594 13.6139 9.46299 13.5571C9.60003 13.5003 9.75083 13.4855 9.89632 13.5144C10.0418 13.5433 10.1754 13.6148 10.2803 13.7197C10.3852 13.8246 10.4566 13.9582 10.4856 14.1037C10.5145 14.2492 10.4997 14.4 10.4429 14.537C10.3861 14.6741 10.29 14.7912 10.1667 14.8736C10.0433 14.956 9.89834 15 9.75 15C9.55109 15 9.36032 14.921 9.21967 14.7803C9.07902 14.6397 9 14.4489 9 14.25ZM7.365 9.75L15.75 9.75C15.9489 9.75 16.1397 9.67098 16.2803 9.53033C16.421 9.38967 16.5 9.19891 16.5 9C16.5 8.80108 16.421 8.61032 16.2803 8.46967C16.1397 8.32901 15.9489 8.25 15.75 8.25L7.365 8.25C7.20735 7.81563 6.91978 7.44034 6.54138 7.17513C6.16297 6.90991 5.71209 6.76764 5.25 6.76764C4.78791 6.76764 4.33703 6.90991 3.95862 7.17513C3.58022 7.44034 3.29265 7.81563 3.135 8.25L2.25 8.25C2.05109 8.25 1.86032 8.32901 1.71967 8.46967C1.57902 8.61032 1.5 8.80108 1.5 9C1.5 9.19891 1.57902 9.38967 1.71967 9.53033C1.86032 9.67098 2.05109 9.75 2.25 9.75L3.135 9.75C3.29265 10.1844 3.58022 10.5596 3.95862 10.8249C4.33703 11.0901 4.78791 11.2324 5.25 11.2324C5.71209 11.2324 6.16297 11.0901 6.54138 10.8249C6.91978 10.5597 7.20735 10.1844 7.365 9.75ZM4.5 9C4.5 8.85166 4.54399 8.70665 4.6264 8.58332C4.70881 8.45998 4.82594 8.36385 4.96299 8.30709C5.10003 8.25032 5.25083 8.23547 5.39632 8.26441C5.5418 8.29335 5.67544 8.36478 5.78033 8.46967C5.88522 8.57455 5.95665 8.70819 5.98559 8.85368C6.01453 8.99916 5.99968 9.14996 5.94291 9.28701C5.88614 9.42405 5.79001 9.54119 5.66668 9.6236C5.54334 9.70601 5.39834 9.75 5.25 9.75C5.05109 9.75 4.86032 9.67098 4.71967 9.53033C4.57902 9.38967 4.5 9.19891 4.5 9ZM13.365 4.5L15.75 4.5C15.9489 4.5 16.1397 4.42098 16.2803 4.28033C16.421 4.13967 16.5 3.94891 16.5 3.75C16.5 3.55108 16.421 3.36032 16.2803 3.21967C16.1397 3.07901 15.9489 3 15.75 3L13.365 3C13.2073 2.56563 12.9198 2.19034 12.5414 1.92513C12.163 1.65991 11.7121 1.51764 11.25 1.51764C10.7879 1.51764 10.337 1.65991 9.95862 1.92513C9.58022 2.19034 9.29265 2.56563 9.135 3L2.25 3C2.05109 3 1.86032 3.07901 1.71967 3.21967C1.57902 3.36032 1.5 3.55108 1.5 3.75C1.5 3.94891 1.57902 4.13967 1.71967 4.28033C1.86032 4.42098 2.05109 4.5 2.25 4.5L9.135 4.5C9.29265 4.93436 9.58022 5.30965 9.95862 5.57487C10.337 5.84008 10.7879 5.98235 11.25 5.98235C11.7121 5.98235 12.163 5.84008 12.5414 5.57487C12.9198 5.30965 13.2073 4.93436 13.365 4.5ZM10.5 3.75C10.5 3.60166 10.544 3.45666 10.6264 3.33332C10.7088 3.20998 10.8259 3.11385 10.963 3.05709C11.1 3.00032 11.2508 2.98547 11.3963 3.01441C11.5418 3.04335 11.6754 3.11478 11.7803 3.21967C11.8852 3.32456 11.9567 3.45819 11.9856 3.60368C12.0145 3.74916 11.9997 3.89996 11.9429 4.03701C11.8861 4.17405 11.79 4.29119 11.6667 4.3736C11.5433 4.45601 11.3983 4.5 11.25 4.5C11.0511 4.5 10.8603 4.42098 10.7197 4.28033C10.579 4.13967 10.5 3.94891 10.5 3.75Z" fill="#33306F"/>
</svg>
