<svg width="80" height="30" viewBox="0 0 80 30" fill="none" xmlns="http://www.w3.org/2000/svg">
<path d="M73 1L80 4H73V1Z" fill="#B83041"/>
<g filter="url(#filter0_d)">
<path d="M8 5C8 4.44772 8.44772 4 9 4H80V25C80 25.5523 79.5523 26 79 26H9C8.44772 26 8 25.5523 8 25V5Z" fill="#FF485E"/>
</g>
<path d="M23.972 18L22.069 14.788H20.65V18H19.88V10.311H22.19C23.048 10.311 23.697 10.5163 24.137 10.927C24.5843 11.3377 24.808 11.8767 24.808 12.544C24.808 13.1013 24.6467 13.578 24.324 13.974C24.0087 14.3627 23.5393 14.6157 22.916 14.733L24.896 18H23.972ZM20.65 14.161H22.201C22.8023 14.161 23.2533 14.0143 23.554 13.721C23.862 13.4277 24.016 13.0353 24.016 12.544C24.016 12.038 23.8693 11.6493 23.576 11.378C23.2827 11.0993 22.8207 10.96 22.19 10.96H20.65V14.161ZM31.7701 14.689C31.7701 14.953 31.7627 15.1547 31.7481 15.294H26.7651C26.7871 15.7487 26.8971 16.1373 27.0951 16.46C27.2931 16.7827 27.5534 17.0283 27.8761 17.197C28.1987 17.3583 28.5507 17.439 28.9321 17.439C29.4307 17.439 29.8487 17.318 30.1861 17.076C30.5307 16.834 30.7581 16.5077 30.8681 16.097H31.6821C31.5354 16.6837 31.2201 17.164 30.7361 17.538C30.2594 17.9047 29.6581 18.088 28.9321 18.088C28.3674 18.088 27.8614 17.9633 27.4141 17.714C26.9667 17.4573 26.6147 17.098 26.3581 16.636C26.1087 16.1667 25.9841 15.6203 25.9841 14.997C25.9841 14.3737 26.1087 13.8273 26.3581 13.358C26.6074 12.8887 26.9557 12.5293 27.4031 12.28C27.8504 12.0307 28.3601 11.906 28.9321 11.906C29.5041 11.906 30.0027 12.0307 30.4281 12.28C30.8607 12.5293 31.1907 12.8667 31.4181 13.292C31.6527 13.71 31.7701 14.1757 31.7701 14.689ZM30.9891 14.667C30.9964 14.2197 30.9047 13.8383 30.7141 13.523C30.5307 13.2077 30.2777 12.9693 29.9551 12.808C29.6324 12.6467 29.2804 12.566 28.8991 12.566C28.3271 12.566 27.8394 12.7493 27.4361 13.116C27.0327 13.4827 26.8091 13.9997 26.7651 14.667H30.9891ZM29.8891 10.223L27.6341 11.532V10.938L29.8891 9.53V10.223ZM35.2468 18.088C34.5575 18.088 33.9928 17.9303 33.5528 17.615C33.1202 17.2923 32.8782 16.856 32.8268 16.306H33.6188C33.6555 16.6433 33.8132 16.9183 34.0918 17.131C34.3778 17.3363 34.7592 17.439 35.2358 17.439C35.6538 17.439 35.9802 17.34 36.2148 17.142C36.4568 16.944 36.5778 16.6983 36.5778 16.405C36.5778 16.1997 36.5118 16.031 36.3798 15.899C36.2478 15.767 36.0792 15.6643 35.8738 15.591C35.6758 15.5103 35.4045 15.426 35.0598 15.338C34.6125 15.2207 34.2495 15.1033 33.9708 14.986C33.6922 14.8687 33.4538 14.6963 33.2558 14.469C33.0652 14.2343 32.9698 13.9227 32.9698 13.534C32.9698 13.2407 33.0578 12.9693 33.2338 12.72C33.4098 12.4707 33.6592 12.2727 33.9818 12.126C34.3045 11.9793 34.6712 11.906 35.0818 11.906C35.7272 11.906 36.2478 12.071 36.6438 12.401C37.0398 12.7237 37.2525 13.171 37.2818 13.743H36.5118C36.4898 13.391 36.3505 13.1087 36.0938 12.896C35.8445 12.676 35.4998 12.566 35.0598 12.566C34.6712 12.566 34.3558 12.6577 34.1138 12.841C33.8718 13.0243 33.7508 13.2517 33.7508 13.523C33.7508 13.7577 33.8205 13.952 33.9598 14.106C34.1065 14.2527 34.2862 14.37 34.4988 14.458C34.7115 14.5387 34.9975 14.6303 35.3568 14.733C35.7895 14.8503 36.1342 14.964 36.3908 15.074C36.6475 15.184 36.8675 15.3453 37.0508 15.558C37.2342 15.7707 37.3295 16.053 37.3368 16.405C37.3368 16.7277 37.2488 17.0173 37.0728 17.274C36.8968 17.5233 36.6512 17.7213 36.3358 17.868C36.0205 18.0147 35.6575 18.088 35.2468 18.088ZM44.2203 14.689C44.2203 14.953 44.2129 15.1547 44.1983 15.294H39.2153C39.2373 15.7487 39.3473 16.1373 39.5453 16.46C39.7433 16.7827 40.0036 17.0283 40.3263 17.197C40.6489 17.3583 41.0009 17.439 41.3823 17.439C41.8809 17.439 42.2989 17.318 42.6363 17.076C42.9809 16.834 43.2083 16.5077 43.3183 16.097H44.1323C43.9856 16.6837 43.6703 17.164 43.1863 17.538C42.7096 17.9047 42.1083 18.088 41.3823 18.088C40.8176 18.088 40.3116 17.9633 39.8643 17.714C39.4169 17.4573 39.0649 17.098 38.8083 16.636C38.5589 16.1667 38.4343 15.6203 38.4343 14.997C38.4343 14.3737 38.5589 13.8273 38.8083 13.358C39.0576 12.8887 39.4059 12.5293 39.8533 12.28C40.3006 12.0307 40.8103 11.906 41.3823 11.906C41.9543 11.906 42.4529 12.0307 42.8783 12.28C43.3109 12.5293 43.6409 12.8667 43.8683 13.292C44.1029 13.71 44.2203 14.1757 44.2203 14.689ZM43.4393 14.667C43.4466 14.2197 43.3549 13.8383 43.1643 13.523C42.9809 13.2077 42.7279 12.9693 42.4053 12.808C42.0826 12.6467 41.7306 12.566 41.3493 12.566C40.7773 12.566 40.2896 12.7493 39.8863 13.116C39.4829 13.4827 39.2593 13.9997 39.2153 14.667H43.4393ZM46.399 13.061C46.5677 12.687 46.8244 12.3973 47.169 12.192C47.521 11.9867 47.95 11.884 48.456 11.884V12.687H48.247C47.6897 12.687 47.2424 12.8373 46.905 13.138C46.5677 13.4387 46.399 13.941 46.399 14.645V18H45.629V11.994H46.399V13.061ZM51.7484 17.252L53.7724 11.994H54.5864L52.1774 18H51.3084L48.8994 11.994H49.7244L51.7484 17.252ZM61.064 14.689C61.064 14.953 61.0567 15.1547 61.042 15.294H56.059C56.081 15.7487 56.191 16.1373 56.389 16.46C56.587 16.7827 56.8473 17.0283 57.17 17.197C57.4927 17.3583 57.8447 17.439 58.226 17.439C58.7247 17.439 59.1427 17.318 59.48 17.076C59.8247 16.834 60.052 16.5077 60.162 16.097H60.976C60.8293 16.6837 60.514 17.164 60.03 17.538C59.5533 17.9047 58.952 18.088 58.226 18.088C57.6613 18.088 57.1553 17.9633 56.708 17.714C56.2607 17.4573 55.9087 17.098 55.652 16.636C55.4027 16.1667 55.278 15.6203 55.278 14.997C55.278 14.3737 55.4027 13.8273 55.652 13.358C55.9013 12.8887 56.2497 12.5293 56.697 12.28C57.1443 12.0307 57.654 11.906 58.226 11.906C58.798 11.906 59.2967 12.0307 59.722 12.28C60.1547 12.5293 60.4847 12.8667 60.712 13.292C60.9467 13.71 61.064 14.1757 61.064 14.689ZM60.283 14.667C60.2903 14.2197 60.1987 13.8383 60.008 13.523C59.8247 13.2077 59.5717 12.9693 59.249 12.808C58.9263 12.6467 58.5743 12.566 58.193 12.566C57.621 12.566 57.1333 12.7493 56.73 13.116C56.3267 13.4827 56.103 13.9997 56.059 14.667H60.283ZM59.183 10.223L56.928 11.532V10.938L59.183 9.53V10.223Z" fill="white"/>
<defs>
<filter id="filter0_d" x="0" y="0" width="80" height="30" filterUnits="userSpaceOnUse" color-interpolation-filters="sRGB">
<feFlood flood-opacity="0" result="BackgroundImageFix"/>
<feColorMatrix in="SourceAlpha" type="matrix" values="0 0 0 0 0 0 0 0 0 0 0 0 0 0 0 0 0 0 127 0" result="hardAlpha"/>
<feOffset dx="-4"/>
<feGaussianBlur stdDeviation="2"/>
<feComposite in2="hardAlpha" operator="out"/>
<feColorMatrix type="matrix" values="0 0 0 0 0 0 0 0 0 0 0 0 0 0 0 0 0 0 0.3 0"/>
<feBlend mode="normal" in2="BackgroundImageFix" result="effect1_dropShadow"/>
<feBlend mode="normal" in="SourceGraphic" in2="effect1_dropShadow" result="shape"/>
</filter>
</defs>
</svg>
